{
  "accessors": [
    {
      "bufferView": 2,
      "componentType": 5126,
      "count": 559,
      "max": [
        1.000000238418579,
        1.0,
        1.0
      ],
      "min": [
        -0.9999998211860657,
        -1.0000003576278687,
        -1.0
      ],
      "type": "VEC3"
    },
    {
      "bufferView": 2,
      "byteOffset": 6708,
      "componentType": 5126,
      "count": 559,
      "max": [
        1.0,
        1.0,
        1.0
      ],
      "min": [
        -1.0,
        -1.0,
        -1.0
      ],
      "type": "VEC3"
    },
    {
      "bufferView": 1,
      "componentType": 5126,
      "count": 559,
      "max": [
        0.9925997257232666,
        1.0
      ],
      "min": [
        0.006391315720975399,
        0.0
      ],
      "type": "VEC2"
    },
    {
      "bufferView": 0,
      "componentType": 5125,
      "count": 2880,
      "type": "SCALAR"
    },
    {
      "bufferView": 2,
      "byteOffset": 13416,
      "componentType": 5126,
      "count": 1160,
      "max": [
        8.082826614379883,
        7.022671222686768,
        0.41141095757484436
      ],
      "min": [
        -7.765111923217773,
        -12.857847213745117,
        -10.577850341796875
      ],
      "type": "VEC3"
    },
    {
      "bufferView": 2,
      "byteOffset": 27336,
      "componentType": 5126,
      "count": 1160,
      "max": [
        1.0,
        1.0,
        1.0
      ],
      "min": [
        -1.0,
        -1.0,
        -1.0
      ],
      "type": "VEC3"
    },
    {
      "bufferView": 1,
      "byteOffset": 4472,
      "componentType": 5126,
      "count": 1160,
      "max": [
        1.000000238418579,
        1.0
      ],
      "min": [
        0.0,
        0.0
      ],
      "type": "VEC2"
    },
    {
      "bufferView": 0,
      "byteOffset": 11520,
      "componentType": 5125,
      "count": 5868,
      "type": "SCALAR"
    },
    {
      "bufferView": 2,
      "byteOffset": 41256,
      "componentType": 5126,
      "count": 824,
      "max": [
        1.023481011390686,
        0.998812198638916,
        0.5715399980545044
      ],
      "min": [
        -1.0000983476638794,
        -32.47907257080078,
        -0.5924311876296997
      ],
      "type": "VEC3"
    },
    {
      "bufferView": 2,
      "byteOffset": 51144,
      "componentType": 5126,
      "count": 824,
      "max": [
        1.0,
        0.659355103969574,
        0.9999992251396179
      ],
      "min": [
        -1.0,
        -0.9346588253974915,
        -0.9999992847442627
      ],
      "type": "VEC3"
    },
    {
      "bufferView": 1,
      "byteOffset": 13752,
      "componentType": 5126,
      "count": 824,
      "max": [
        0.875,
        1.0
      ],
      "min": [
        0.125,
        0.0
      ],
      "type": "VEC2"
    },
    {
      "bufferView": 0,
      "byteOffset": 34992,
      "componentType": 5125,
      "count": 1236,
      "type": "SCALAR"
    }
  ],
  "asset": {
    "extras": {
      "author": "Vamsidharan (https://sketchfab.com/Vamsidharan)",
      "license": "CC-BY-4.0 (http://creativecommons.org/licenses/by/4.0/)",
      "source": "https://sketchfab.com/3d-models/antique-globe-0b93e315ed034bd28b73768d0747ddbc",
      "title": "Antique Globe"
    },
    "generator": "Sketchfab-15.12.0",
    "version": "2.0"
  },
  "bufferViews": [
    {
      "buffer": 0,
      "byteLength": 39936,
      "name": "floatBufferViews",
      "target": 34963
    },
    {
      "buffer": 0,
      "byteLength": 20344,
      "byteOffset": 39936,
      "byteStride": 8,
      "name": "floatBufferViews",
      "target": 34962
    },
    {
      "buffer": 0,
      "byteLength": 61032,
      "byteOffset": 60280,
      "byteStride": 12,
      "name": "floatBufferViews",
      "target": 34962
    }
  ],
  "buffers": [
    {
      "byteLength": 121312,
      "uri": "scene.bin"
    }
  ],
  "images": [
    {
      "uri": "textures/Globe_Texture_baseColor.jpeg"
    },
    {
      "uri": "textures/Globe_Stand_Mat-1.001_baseColor.jpeg"
    }
  ],
  "materials": [
    {
      "doubleSided": true,
      "name": "Globe_Texture",
      "pbrMetallicRoughness": {
        "baseColorTexture": {
          "index": 0
        },
        "metallicFactor": 0.0,
        "roughnessFactor": 0.8211145618000169
      }
    },
    {
      "doubleSided": true,
      "name": "Globe_Stand_Mat-1.001",
      "pbrMetallicRoughness": {
        "baseColorTexture": {
          "index": 1
        },
        "metallicFactor": 0.0,
        "roughnessFactor": 0.7850666567986994
      }
    },
    {
      "doubleSided": true,
      "name": "Globe_Stand_Mat-1",
      "pbrMetallicRoughness": {
        "baseColorTexture": {
          "index": 1
        },
        "metallicFactor": 0.0,
        "roughnessFactor": 0.7950432683506113
      }
    }
  ],
  "meshes": [
    {
      "name": "Globe_Globe_Texture_0",
      "primitives": [
        {
          "attributes": {
            "NORMAL": 1,
            "POSITION": 0,
            "TEXCOORD_0": 2
          },
          "indices": 3,
          "material": 0,
          "mode": 4
        }
      ]
    },
    {
      "name": "Globe_Stand_part-1_Globe_Stand_Mat-1.001_0",
      "primitives": [
        {
          "attributes": {
            "NORMAL": 5,
            "POSITION": 4,
            "TEXCOORD_0": 6
          },
          "indices": 7,
          "material": 1,
          "mode": 4
        }
      ]
    },
    {
      "name": "Globe_Stand_part-2_Globe_Stand_Mat-1_0",
      "primitives": [
        {
          "attributes": {
            "NORMAL": 9,
            "POSITION": 8,
            "TEXCOORD_0": 10
          },
          "indices": 11,
          "material": 2,
          "mode": 4
        }
      ]
    }
  ],
  "nodes": [
    {
      "children": [
        1
      ],
      "matrix": [
        0.19907481968402863,
        0.0,
        0.0,
        0.0,
        0.0,
        4.420348968726198e-17,
        -0.19907481968402863,
        0.0,
        0.0,
        0.19907481968402863,
        4.420348968726198e-17,
        0.0,
        0.0,
        0.0,
        0.0,
        1.0
      ],
      "name": "Sketchfab_model"
    },
    {
      "children": [
        2
      ],
      "matrix": [
        0.009999999776482582,
        0.0,
        0.0,
        0.0,
        0.0,
        0.0,
        0.009999999776482582,
        0.0,
        0.0,
        -0.009999999776482582,
        0.0,
        0.0,
        0.0,
        0.0,
        0.0,
        1.0
      ],
      "name": "Antique Globe.fbx"
    },
    {
      "children": [
        3,
        5,
        7
      ],
      "name": "RootNode"
    },
    {
      "children": [
        4
      ],
      "matrix": [
        28.912571668495904,
        42.729008058881725,
        -85.66384035250381,
        0.0,
        -95.67233038002924,
        15.979265321271164,
        -24.320120876487355,
        0.0,
        3.2967061765914076,
        88.98817152580618,
        45.49985776767793,
        0.0,
        0.0,
        48.97122573852539,
        4.43558931350708,
        1.0
      ],
      "name": "Globe"
    },
    {
      "mesh": 0,
      "name": "Globe_Globe_Texture_0"
    },
    {
      "children": [
        6
      ],
      "matrix": [
        5.850223541259766,
        0.0,
        0.0,
        0.0,
        0.0,
        -8.119946797970354e-07,
        -4.983987808227473,
        0.0,
        0.0,
        24.919635772704748,
        -4.059923990286097e-06,
        0.0,
        0.0,
        169.0028839111328,
        11.164904594421387,
        1.0
      ],
      "name": "Globe_Stand_part-1"
    },
    {
      "mesh": 1,
      "name": "Globe_Stand_part-1_Globe_Stand_Mat-1.001_0"
    },
    {
      "children": [
        8
      ],
      "matrix": [
        7.585595722044256,
        -0.0036755258038284134,
        -0.008459723995825586,
        -0.0,
        0.004037801160227443,
        -0.007774534539447129,
        3.6239601581478333,
        -0.0,
        0.10020378554397218,
        205.78595553891046,
        0.4413639627115401,
        -0.0,
        -0.7427513599395752,
        53.22856903076172,
        127.62564086914063,
        1.0
      ],
      "name": "Globe_Stand_part-2"
    },
    {
      "mesh": 2,
      "name": "Globe_Stand_part-2_Globe_Stand_Mat-1_0"
    }
  ],
  "samplers": [
    {
      "magFilter": 9729,
      "minFilter": 9987,
      "wrapS": 10497,
      "wrapT": 10497
    }
  ],
  "scene": 0,
  "scenes": [
    {
      "name": "Sketchfab_Scene",
      "nodes": [
        0
      ]
    }
  ],
  "textures": [
    {
      "sampler": 0,
      "source": 0
    },
    {
      "sampler": 0,
      "source": 1
    }
  ]
}
